HIERARCHY
ROOT SpineBase
{
  OFFSET 0.000000 0.000000 0.000000
  CHANNELS 6 Xposition Yposition Zposition Zrotation Xrotation Yrotation
  JOINT SpineMid
  {
    OFFSET 0.000000 29.515286 0.000000
    CHANNELS 3 Zrotation Xrotation Yrotation
    JOINT SpineShoulder
    {
      OFFSET -0.144698 21.972795 -0.760717
      CHANNELS 3 Zrotation Xrotation Yrotation
      JOINT Neck
      {
        OFFSET -0.112654 7.300281 -0.529634
        CHANNELS 3 Zrotation Xrotation Yrotation
        JOINT Head
        {
          OFFSET 2.682619 9.852016 7.246691
          CHANNELS 3 Zrotation Xrotation Yrotation
          End Site
          {
            OFFSET 0 0 0
          }
        }
      }
      JOINT ShoulderLeft
      {
        OFFSET -4.621836 -6.196804 -5.809897
        CHANNELS 3 Zrotation Xrotation Yrotation
        JOINT ElbowLeft
        {
          OFFSET -5.677978 -18.869257 -0.343617
          CHANNELS 3 Zrotation Xrotation Yrotation
          JOINT WristLeft
          {
            OFFSET -4.166209 -11.123548 12.094746
            CHANNELS 3 Zrotation Xrotation Yrotation
            JOINT HandLeft
            {
              OFFSET -0.108121 0.491804 0.122536
              CHANNELS 3 Zrotation Xrotation Yrotation
              JOINT HandTipLeft
              {
                OFFSET -1.665128 -1.002715 -0.163475
                CHANNELS 3 Zrotation Xrotation Yrotation
                End Site
                {
                  OFFSET 0 0 0
                }
              }
              JOINT ThumbLeft
              {
                OFFSET -1.443385 -1.493978 -4.000727
                CHANNELS 3 Zrotation Xrotation Yrotation
                End Site
                {
                  OFFSET 0 0 0
                }
              }
            }
          }
        }
      }
      JOINT ShoulderRight
      {
        OFFSET 5.779831 4.400047 -3.757804
        CHANNELS 3 Zrotation Xrotation Yrotation
        JOINT ElbowRight
        {
          OFFSET -10.356245 -21.436265 -6.652328
          CHANNELS 3 Zrotation Xrotation Yrotation
          JOINT WristRight
          {
            OFFSET -9.018413 -21.093275 6.431465
            CHANNELS 3 Zrotation Xrotation Yrotation
            JOINT HandRight
            {
              OFFSET 2.346661 -8.164308 -2.015683
              CHANNELS 3 Zrotation Xrotation Yrotation
              JOINT HandTipRight
              {
                OFFSET -0.350839 -3.201635 -0.683069
                CHANNELS 3 Zrotation Xrotation Yrotation
                End Site
                {
                  OFFSET 0 0 0
                }
              }
              JOINT ThumbRight
              {
                OFFSET -1.147378 -0.183129 -0.308457
                CHANNELS 3 Zrotation Xrotation Yrotation
                End Site
                {
                  OFFSET 0 0 0
                }
              }
            }
          }
        }
      }
    }
  }
  JOINT HipLeft
  {
    OFFSET -5.074388 0.554984 -4.248427
    CHANNELS 3 Zrotation Xrotation Yrotation
    JOINT KneeLeft
    {
      OFFSET 10.434611 -25.608587 2.797297
      CHANNELS 3 Zrotation Xrotation Yrotation
      JOINT AnkleLeft
      {
        OFFSET 8.728059 -25.772747 3.561073
        CHANNELS 3 Zrotation Xrotation Yrotation
        JOINT FootLeft
        {
          OFFSET -3.863244 -8.227073 -6.727114
          CHANNELS 3 Zrotation Xrotation Yrotation
          End Site
          {
            OFFSET 0 0 0
          }
        }
      }
    }
  }
  JOINT HipRight
  {
    OFFSET 3.313152 1.889210 -2.126003
    CHANNELS 3 Zrotation Xrotation Yrotation
    JOINT KneeRight
    {
      OFFSET -3.876759 -26.002168 -2.675002
      CHANNELS 3 Zrotation Xrotation Yrotation
      JOINT AnkleRight
      {
        OFFSET 8.151249 -34.136792 -1.234366
        CHANNELS 3 Zrotation Xrotation Yrotation
        JOINT FootRight
        {
          OFFSET 0.428122 -2.480953 -11.996765
          CHANNELS 3 Zrotation Xrotation Yrotation
          End Site
          {
            OFFSET 0 0 0
          }
        }
      }
    }
  }
}
MOTION
Frames: 12
Frame Time: 0.033333
80.215853 65.419993 295.990594 -0.000000 0.000000 -14.200319 -0.000000 0.000000 14.200319 -0.000000 0.000000 0.000000 -0.000000 0.000000 0.000000 0.000000 0.000000 0.000000 -0.000000 0.000000 0.000000 -0.000000 0.000000 0.000000 -0.000000 0.000000 0.000000 -0.000000 0.000000 0.000000 0.000000 0.000000 0.000000 0.000000 0.000000 0.000000 -0.000000 0.000000 0.000000 -0.000000 0.000000 0.000000 -0.000000 0.000000 0.000000 -0.000000 0.000000 0.000000 0.000000 0.000000 0.000000 0.000000 0.000000 0.000000 -0.000000 0.000000 14.200319 -0.000000 0.000000 0.000000 -0.000000 0.000000 0.000000 0.000000 0.000000 0.000000 -0.000000 0.000000 14.200319 -0.000000 0.000000 0.000000 -0.000000 0.000000 0.000000 0.000000 0.000000 0.000000
79.925638 65.486846 295.816397 -0.380496 0.146327 -13.107878 0.403767 -0.056221 13.108562 -0.000000 0.000000 0.000000 -0.000000 0.000000 0.000000 0.000000 0.000000 0.000000 -0.000000 0.000000 0.000000 -0.000000 0.000000 0.000000 79.518360 -62.890699 18.411145 -90.654466 29.075577 55.184570 0.000000 0.000000 0.000000 0.000000 0.000000 0.000000 -0.989810 -0.883826 0.725242 0.920530 -0.592836 -0.135243 -2.770684 2.459139 0.479694 2.274767 -6.681867 -0.271746 0.000000 0.000000 0.000000 0.000000 0.000000 0.000000 3.604839 -0.535397 12.969453 -3.012466 1.184265 0.186781 -2.939231 2.751373 1.145903 0.000000 0.000000 0.000000 0.403767 -0.056221 13.108562 -0.000000 0.000000 0.000000 0.052396 0.817269 -0.108938 0.000000 0.000000 0.000000
79.707534 65.552529 295.657559 -0.700314 0.248496 -12.305356 0.737185 -0.093520 12.307477 -0.000000 0.000000 0.000000 -0.000000 0.000000 0.000000 0.000000 0.000000 0.000000 -0.000000 0.000000 0.000000 -0.000000 0.000000 0.000000 148.595258 -62.143612 69.146795 -125.480264 12.982962 65.318359 0.000000 0.000000 0.000000 0.000000 0.000000 0.000000 -1.853350 -1.664666 1.348041 1.702655 -1.023221 -0.315334 -5.724666 4.182368 1.160838 4.531833 -12.319061 -0.564632 0.000000 0.000000 0.000000 0.000000 0.000000 0.000000 6.214132 -1.003023 12.089984 -4.387957 1.750870 0.346972 -5.354484 4.549239 1.834062 0.000000 0.000000 0.000000 0.737185 -0.093520 12.307477 -0.000000 0.000000 0.000000 0.095229 1.191706 -0.243539 0.000000 0.000000 0.000000
79.561540 65.617043 295.514077 -0.959459 0.306508 -11.727167 1.001729 -0.105064 11.730651 -0.000000 0.000000 0.000000 -0.000000 0.000000 0.000000 0.000000 0.000000 0.000000 0.788249 -0.271826 0.069458 -0.787928 0.272756 -0.065712 157.932233 -58.350125 72.679800 -134.913659 9.174164 58.203550 0.000000 0.000000 0.000000 0.000000 0.000000 0.000000 -2.592361 -2.336405 1.871886 2.348436 -1.284893 -0.535016 -8.876713 5.095348 1.962771 6.830492 -16.670729 -0.914388 0.000000 0.000000 0.000000 0.000000 0.000000 0.000000 7.935152 -1.343179 11.470972 -6.555016 2.580031 0.495188 -5.222222 4.902062 2.076092 0.000000 0.000000 0.000000 1.001729 -0.105064 11.730651 -0.000000 0.000000 0.000000 0.129390 1.154249 -0.407842 0.000000 0.000000 0.000000
79.487656 65.680386 295.385953 -1.157940 0.320365 -11.331393 0.324427 -0.064549 11.306138 0.852614 -0.192905 0.029681 -0.000000 0.000000 0.000000 0.000000 0.000000 0.000000 0.780544 -0.477958 0.133148 -0.779459 0.479726 -0.126629 158.473072 -56.520639 69.339758 -138.156048 8.874790 51.461662 0.000000 0.000000 0.000000 0.000000 0.000000 0.000000 -3.208767 -2.894375 2.300172 2.860834 -1.373317 -0.789523 -12.222659 5.129804 2.782740 9.229294 -19.579266 -1.329532 0.000000 0.000000 0.000000 0.000000 0.000000 0.000000 8.839450 -1.525653 11.052107 -7.232125 2.860632 0.571915 -5.007784 4.807198 1.942293 0.000000 0.000000 0.000000 0.432933 -0.823272 11.506717 0.896999 0.569152 -0.181714 0.154403 0.700944 -0.608461 0.000000 0.000000 0.000000
79.485884 65.742560 295.273186 -1.295768 0.290066 -11.091211 0.330187 -0.074327 11.060816 0.986135 -0.153035 0.034447 0.380009 1.007716 -0.554171 0.000000 0.000000 0.000000 0.638140 -0.742614 0.216367 -0.635385 0.744973 -0.208100 155.499841 -55.260119 62.773935 -136.713234 9.156453 47.453201 0.000000 0.000000 0.000000 0.000000 0.000000 0.000000 -3.704454 -3.335111 2.635993 3.243210 -1.285194 -1.074772 -15.742276 4.228102 3.494932 11.781936 -20.956026 -1.799298 0.000000 0.000000 0.000000 0.000000 0.000000 0.000000 8.961855 -1.534699 10.797111 -7.762743 3.821291 0.862821 -3.383496 3.048727 1.110972 0.000000 0.000000 0.000000 0.270092 -0.955274 11.314764 1.217297 0.694463 -0.236381 0.168059 -0.207881 -0.855496 0.000000 0.000000 0.000000
79.617578 65.770673 295.184534 -1.319972 0.164771 -10.846650 0.235175 -0.103092 10.809137 0.159556 -0.258956 -0.036419 1.710727 1.885529 -0.944223 0.000000 0.000000 0.000000 1.144228 -1.032784 0.452029 0.566099 1.782613 0.227737 152.827276 -52.644142 55.212988 -131.800720 0.328977 53.343065 0.000000 0.000000 0.000000 0.000000 0.000000 0.000000 -3.323220 -3.731834 3.162591 3.632357 -0.719942 -1.635418 -22.465367 -1.783379 2.915170 18.922358 -14.729030 -2.620399 0.000000 0.000000 0.000000 0.000000 0.000000 0.000000 7.243360 -0.971752 10.633868 -6.432397 3.099835 0.622487 -0.749021 -3.181812 2.043463 0.000000 0.000000 0.000000 -0.172536 -1.081096 11.137181 1.697412 0.855591 -0.315330 0.092387 -3.019322 -1.106251 0.000000 0.000000 0.000000
79.784842 65.826452 295.098977 -1.337731 0.018132 -10.871358 0.159207 -0.113298 10.827644 0.111336 -0.251235 -0.045028 2.304563 2.692697 -1.457923 0.000000 0.000000 0.000000 0.773108 -1.505035 0.649750 1.483966 1.806977 0.656661 139.882881 -52.221351 40.716230 -117.803029 7.865075 50.086745 0.000000 0.000000 0.000000 0.000000 0.000000 0.000000 -3.416560 -3.882577 3.374673 3.729629 -0.036927 -2.079762 -27.571064 -6.134391 2.298482 22.899725 -11.505206 -3.464817 0.000000 0.000000 0.000000 0.000000 0.000000 0.000000 6.529977 -1.041631 10.533997 -9.280483 5.648853 1.359816 7.293900 -5.110692 -1.987299 0.000000 0.000000 0.000000 -0.581504 -1.156774 11.222100 2.133414 0.994514 -0.387027 0.083477 -5.399333 -1.725183 0.000000 0.000000 0.000000
80.029508 65.930486 295.036784 -1.251244 -0.126756 -11.326504 0.032045 -0.146628 11.278467 0.097349 -0.207083 -0.048258 2.833320 3.365576 -1.964812 0.000000 0.000000 0.000000 0.315504 -1.795692 0.776805 2.583988 1.562136 1.355991 119.536628 -48.724524 20.467036 -101.419385 10.827725 40.450569 0.000000 0.000000 0.000000 0.000000 0.000000 0.000000 -3.187486 -3.617048 3.272627 3.477499 0.719879 -2.345454 -30.203104 -9.567026 1.394198 24.614566 -10.138359 -3.766994 0.000000 0.000000 0.000000 0.000000 0.000000 0.000000 5.642169 -1.287941 10.788216 -10.945493 7.887068 2.246121 13.324087 -6.193683 -5.265800 0.000000 0.000000 0.000000 -1.108755 -1.166568 11.725379 1.783165 0.760614 -0.469266 1.194989 -3.302737 -2.973687 0.000000 0.000000 0.000000
80.126777 66.048136 294.972795 -1.300359 -0.234899 -11.607465 0.062114 -0.101748 11.557591 0.137504 -0.164374 -0.045446 2.977119 3.671796 -2.174708 0.000000 0.000000 0.000000 -0.079959 -1.881197 0.809979 3.508569 1.795421 1.840689 92.416022 -40.098979 1.724432 -79.966579 8.687353 34.749924 0.000000 0.000000 0.000000 0.000000 0.000000 0.000000 -3.267759 -3.154174 3.090625 3.437938 0.825109 -2.382729 -29.728484 -9.395787 1.724235 23.230114 -14.385064 -3.457420 0.000000 0.000000 0.000000 0.000000 0.000000 0.000000 5.496730 -1.485004 10.922170 -12.595910 10.114354 3.221057 16.622143 -9.041356 -5.979233 0.000000 0.000000 0.000000 -1.286394 -1.150425 12.035693 1.815481 0.802861 -0.493696 1.362850 -4.636302 -3.327623 0.000000 0.000000 0.000000
80.227130 66.188504 294.898477 -1.259642 -0.249583 -11.747166 0.107673 -0.038759 11.701317 0.182021 -0.127853 -0.037168 2.737484 3.491302 -2.079265 0.000000 0.000000 0.000000 -0.411270 -1.775425 0.746846 2.850107 1.946750 0.879069 90.780517 -37.556827 0.418209 -76.180261 8.711230 34.025112 0.000000 0.000000 0.000000 0.000000 0.000000 0.000000 -3.192424 -2.704392 2.779446 3.225266 0.646307 -2.172022 -27.781292 -4.057475 4.619801 19.128993 -22.018345 -3.763868 0.000000 0.000000 0.000000 0.000000 0.000000 0.000000 5.397093 -1.793640 10.934667 -11.848801 10.389688 3.417842 15.461390 -7.735637 -6.419221 0.000000 0.000000 0.000000 -1.635121 -1.308936 12.218401 2.022049 0.909321 -0.535539 1.224931 -8.757582 -3.340084 0.000000 0.000000 0.000000
80.235041 66.355522 294.876483 -1.236548 -0.223062 -11.756321 0.218781 0.072920 11.717445 1.007373 0.196882 0.034443 1.338438 2.448251 -1.658963 0.000000 0.000000 0.000000 -1.287492 -1.781075 0.537752 2.535512 1.900606 0.671282 73.236069 -28.487913 -6.323508 -63.012640 5.996837 27.828234 0.000000 0.000000 0.000000 0.000000 0.000000 0.000000 -3.741015 -2.475142 2.255728 2.888377 0.118304 -1.703815 -24.276755 4.626759 8.247982 14.102077 -33.108772 -5.054835 0.000000 0.000000 0.000000 0.000000 0.000000 0.000000 5.634767 -2.026331 10.880184 -9.990958 10.038234 3.313836 10.912769 -5.056953 -5.877208 0.000000 0.000000 0.000000 -1.836063 -1.353707 12.240106 2.164946 0.901594 -0.545602 0.764144 -15.948739 -3.085465 0.000000 0.000000 0.000000
